<svg xmlns="http://www.w3.org/2000/svg" xmlns:xlink="http://www.w3.org/1999/xlink" fill="#118ad3" version="1.1" id="Capa_1" width="800px" height="800px" viewBox="0 0 436.48 436.48" xml:space="preserve">
<g>
	<path d="M404.98,39.903H31.5c-17.369,0-31.5,14.131-31.5,31.5v221.988c0,17.369,14.131,31.5,31.5,31.5h144.35v29.688h-33.355   c-8.284,0-15,6.715-15,15v11.998c0,8.283,6.716,15,15,15h151.49c8.284,0,15-6.717,15-15v-11.998c0-8.285-6.716-15-15-15h-33.354   v-29.688h144.35c17.369,0,31.5-14.131,31.5-31.5V71.403C436.48,54.034,422.35,39.903,404.98,39.903z M395.24,287.017h-354V77.772   h354V287.017z" fill="#118ad3"/>
</g>
</svg>